<svg width="112" height="32" viewBox="0 0 112 32" fill="none" xmlns="http://www.w3.org/2000/svg">
<g clip-path="url(#clip0_26_42)">
<path d="M21.6323 11.8973C21.6323 14.6825 20.0964 16.7901 14.7896 16.7901H0.00786628V6.57481H14.8899C15.6421 6.57481 16.3511 6.30024 16.3511 5.44791C16.3511 4.59457 15.6215 4.36741 14.8899 4.36741H0L3.52311 0H14.6637C18.6883 0 21.2792 1.55753 21.2792 4.64197C21.2792 6.62519 20.1485 7.73037 18.9912 8.15803C20.4493 8.58272 21.6323 9.88641 21.6323 11.8973ZM5.23403 10.1649V12.4721H14.8152C15.9469 12.4721 16.4257 12.0721 16.4257 11.2948C16.4257 10.5679 15.9469 10.1649 14.8152 10.1649H5.23403ZM29.4985 16.7901H24.5821V0H29.4985V16.7901ZM43.8407 16.7901H32.4484V6.32493H37.7384V12.4721H43.8407C46.7611 12.4721 48.8781 10.8672 48.8781 8.45037C48.8781 6.09284 46.6932 4.36049 43.8476 4.36049H32.4563L35.8083 0H43.8407C49.7867 0 54.0807 3.38765 54.0807 8.23209C54.0807 13.0775 49.7365 16.7901 43.8407 16.7901ZM68.4208 16.7901H57.0305V6.32493H62.3304V12.4721H68.4287C71.352 12.4721 73.4612 10.8672 73.4612 8.45728C73.4612 6.09975 71.2744 4.3684 68.4287 4.3684H57.0384L60.3913 0H68.4208C74.3668 0 78.6628 3.38765 78.6628 8.23209C78.6628 13.0775 74.3167 16.7901 68.4208 16.7901Z" fill="#265896"/>
<path d="M105.223 0.0296517H110.829C110.885 0.0298999 110.94 0.0466463 110.986 0.0777947C111.032 0.108943 111.068 0.153111 111.09 0.204768C111.111 0.256425 111.117 0.313279 111.106 0.368212C111.096 0.423145 111.069 0.473719 111.03 0.513603L102.867 8.73088C102.84 8.7574 102.819 8.78888 102.805 8.82353C102.791 8.8582 102.783 8.89535 102.783 8.93287C102.783 8.97037 102.791 9.00753 102.805 9.04219C102.819 9.07684 102.84 9.10832 102.867 9.13484L110.915 17.2237C110.954 17.2636 110.981 17.3141 110.992 17.3691C111.002 17.424 110.997 17.4808 110.976 17.5327C110.955 17.5844 110.919 17.6288 110.873 17.6603C110.826 17.6917 110.772 17.7089 110.716 17.7096H104.98C104.906 17.7091 104.835 17.6793 104.782 17.6267L99.5512 12.3595C99.5252 12.3331 99.4941 12.3121 99.46 12.2978C99.4258 12.2835 99.3892 12.2761 99.3521 12.2761C99.315 12.2761 99.2784 12.2835 99.2442 12.2978C99.2101 12.3121 99.179 12.3331 99.1529 12.3595L93.8393 17.6948C93.786 17.748 93.7138 17.7777 93.6388 17.7779H80.9121C80.8372 17.7773 80.7654 17.7472 80.7124 17.6939C80.6594 17.6407 80.6294 17.5687 80.6289 17.4933V7.00151C80.6289 6.84545 80.7548 6.71904 80.9092 6.71904L90.3605 6.60348C90.4013 6.60285 90.4417 6.61108 90.479 6.62763C90.5164 6.64416 90.5497 6.6686 90.5768 6.69928L92.443 8.78719C92.4918 8.84221 92.5176 8.91407 92.5148 8.98769C92.512 9.06132 92.481 9.13104 92.4282 9.18224L90.4538 11.0657C90.4009 11.1166 90.3305 11.1449 90.2572 11.1447H85.9013C85.8645 11.1445 85.828 11.1515 85.7938 11.1654C85.7597 11.1793 85.7288 11.1998 85.7025 11.2258C85.6764 11.2517 85.6554 11.2826 85.6412 11.3167C85.6268 11.3507 85.6193 11.3873 85.619 11.4242V13.4844C85.619 13.6415 85.7458 13.7689 85.9022 13.7689H91.441C91.5162 13.7689 91.5882 13.7391 91.6417 13.686L95.9926 9.3136C96.0458 9.26011 96.0756 9.18765 96.0756 9.11212C96.0756 9.03659 96.0458 8.96413 95.9926 8.91064L91.3428 4.23607C91.317 4.20993 91.2864 4.18915 91.2526 4.17491C91.2189 4.16068 91.1826 4.15327 91.1461 4.15311H85.0144C84.9773 4.15308 84.9406 4.14564 84.9066 4.13123C84.8725 4.11681 84.8416 4.09571 84.8157 4.06916L81.2552 0.483973C81.2152 0.444461 81.1878 0.393816 81.1766 0.338557C81.1656 0.283299 81.1712 0.225953 81.1926 0.173903C81.2142 0.121852 81.2509 0.0774769 81.2977 0.0464889C81.3446 0.0155008 81.3997 -0.000682365 81.4558 2.20563e-05H93.0998C93.1756 2.20563e-05 93.2473 0.0296517 93.3005 0.0829851L99.087 5.90521C99.1134 5.93203 99.1448 5.95332 99.1794 5.96785C99.214 5.98239 99.2512 5.98987 99.2886 5.98987C99.3261 5.98987 99.3633 5.98239 99.3978 5.96785C99.4325 5.95332 99.4638 5.93203 99.4902 5.90521L105.005 0.121504C105.032 0.0917197 105.066 0.0682215 105.104 0.0525589C105.142 0.0368964 105.182 0.028438 105.223 0.0296517Z" fill="#E2A739"/>
<path d="M1.2453 24.0285H3.8217C4.2625 24.0285 4.6045 24.1526 4.8477 24.4009C5.09597 24.6491 5.2201 24.9785 5.2201 25.3889C5.2201 25.5915 5.19223 25.7638 5.1365 25.9057C5.08583 26.0475 5.0149 26.1641 4.9237 26.2553C4.83757 26.3465 4.7337 26.4149 4.6121 26.4605C4.49557 26.501 4.3689 26.5238 4.2321 26.5289V26.5745C4.35877 26.5745 4.4905 26.5973 4.6273 26.6429C4.76917 26.6885 4.89837 26.7619 5.0149 26.8633C5.13143 26.9595 5.2277 27.0862 5.3037 27.2433C5.38477 27.4003 5.4253 27.5929 5.4253 27.8209C5.4253 28.0286 5.38983 28.2262 5.3189 28.4137C5.25303 28.5961 5.1593 28.7557 5.0377 28.8925C4.9161 29.0293 4.7717 29.1382 4.6045 29.2193C4.4373 29.2953 4.2549 29.3333 4.0573 29.3333H1.2453V24.0285ZM2.4005 28.3605H3.7305C3.8825 28.3605 4.00157 28.3199 4.0877 28.2389C4.1789 28.1527 4.2245 28.0337 4.2245 27.8817V27.6233C4.2245 27.4713 4.1789 27.3547 4.0877 27.2737C4.00157 27.1875 3.8825 27.1445 3.7305 27.1445H2.4005V28.3605ZM2.4005 26.2021H3.5481C3.7001 26.2021 3.81917 26.159 3.9053 26.0729C3.99143 25.9867 4.0345 25.8677 4.0345 25.7157V25.4877C4.0345 25.3357 3.99143 25.2166 3.9053 25.1305C3.81917 25.0443 3.7001 25.0013 3.5481 25.0013H2.4005V26.2021ZM6.81605 24.9177C6.58805 24.9177 6.42085 24.867 6.31445 24.7657C6.21311 24.6593 6.16245 24.525 6.16245 24.3629V24.1957C6.16245 24.0335 6.21311 23.9018 6.31445 23.8005C6.42085 23.6941 6.58805 23.6409 6.81605 23.6409C7.04405 23.6409 7.20871 23.6941 7.31005 23.8005C7.41645 23.9018 7.46965 24.0335 7.46965 24.1957V24.3629C7.46965 24.525 7.41645 24.6593 7.31005 24.7657C7.20871 24.867 7.04405 24.9177 6.81605 24.9177ZM6.25365 25.3433H7.37845V29.3333H6.25365V25.3433ZM10.8754 28.6645H10.8374C10.807 28.7709 10.7589 28.8722 10.693 28.9685C10.6272 29.0597 10.5461 29.1407 10.4498 29.2117C10.3586 29.2775 10.2522 29.3282 10.1306 29.3637C10.0141 29.4042 9.89251 29.4245 9.76585 29.4245C9.25918 29.4245 8.87665 29.2471 8.61825 28.8925C8.35985 28.5327 8.23065 28.0134 8.23065 27.3345C8.23065 26.6555 8.35985 26.1387 8.61825 25.7841C8.87665 25.4294 9.25918 25.2521 9.76585 25.2521C10.0242 25.2521 10.2522 25.323 10.4498 25.4649C10.6525 25.6067 10.7817 25.7891 10.8374 26.0121H10.8754V23.7093H12.0002V29.3333H10.8754V28.6645ZM10.1382 28.5125C10.351 28.5125 10.5258 28.4618 10.6626 28.3605C10.8045 28.2541 10.8754 28.1097 10.8754 27.9273V26.7493C10.8754 26.5669 10.8045 26.425 10.6626 26.3237C10.5258 26.2173 10.351 26.1641 10.1382 26.1641C9.92545 26.1641 9.74811 26.2401 9.60625 26.3921C9.46945 26.539 9.40105 26.7391 9.40105 26.9925V27.6841C9.40105 27.9374 9.46945 28.1401 9.60625 28.2921C9.74811 28.439 9.92545 28.5125 10.1382 28.5125ZM17.1205 25.0545V29.3333H15.9653V25.0545H14.5289V24.0285H18.5569V25.0545H17.1205ZM19.2864 23.7093H20.4112V26.0197H20.4568C20.5277 25.8119 20.6519 25.6321 20.8292 25.4801C21.0065 25.3281 21.2523 25.2521 21.5664 25.2521C21.9768 25.2521 22.2859 25.3889 22.4936 25.6625C22.7064 25.9361 22.8128 26.3262 22.8128 26.8329V29.3333H21.688V26.9241C21.688 26.6657 21.6475 26.4757 21.5664 26.3541C21.4853 26.2274 21.3409 26.1641 21.1332 26.1641C21.042 26.1641 20.9533 26.1767 20.8672 26.2021C20.7811 26.2223 20.7025 26.2578 20.6316 26.3085C20.5657 26.3591 20.5125 26.4225 20.472 26.4985C20.4315 26.5694 20.4112 26.653 20.4112 26.7493V29.3333H19.2864V23.7093ZM25.4781 29.4245C25.1741 29.4245 24.9031 29.3763 24.6649 29.2801C24.4268 29.1787 24.2241 29.0394 24.0569 28.8621C23.8948 28.6797 23.7707 28.4593 23.6845 28.2009C23.6035 27.9425 23.5629 27.6537 23.5629 27.3345C23.5629 27.0203 23.6035 26.7366 23.6845 26.4833C23.7656 26.2249 23.8847 26.0045 24.0417 25.8221C24.2039 25.6397 24.4015 25.5003 24.6345 25.4041C24.8676 25.3027 25.1336 25.2521 25.4325 25.2521C25.7619 25.2521 26.0431 25.3078 26.2761 25.4193C26.5143 25.5307 26.7068 25.6802 26.8537 25.8677C27.0057 26.0551 27.1147 26.273 27.1805 26.5213C27.2515 26.7645 27.2869 27.0203 27.2869 27.2889V27.6233H24.7257V27.6841C24.7257 27.9475 24.7967 28.1578 24.9385 28.3149C25.0804 28.4669 25.3033 28.5429 25.6073 28.5429C25.8404 28.5429 26.0304 28.4973 26.1773 28.4061C26.3243 28.3098 26.4611 28.1958 26.5877 28.0641L27.1501 28.7633C26.9728 28.971 26.7397 29.1331 26.4509 29.2497C26.1672 29.3662 25.8429 29.4245 25.4781 29.4245ZM25.4553 26.0805C25.2273 26.0805 25.0475 26.1565 24.9157 26.3085C24.7891 26.4554 24.7257 26.653 24.7257 26.9013V26.9621H26.1241V26.8937C26.1241 26.6505 26.0684 26.4554 25.9569 26.3085C25.8505 26.1565 25.6833 26.0805 25.4553 26.0805ZM29.9383 24.0285H32.5147C32.9555 24.0285 33.2975 24.1526 33.5407 24.4009C33.7889 24.6491 33.9131 24.9785 33.9131 25.3889C33.9131 25.5915 33.8852 25.7638 33.8295 25.9057C33.7788 26.0475 33.7079 26.1641 33.6167 26.2553C33.5305 26.3465 33.4267 26.4149 33.3051 26.4605C33.1885 26.501 33.0619 26.5238 32.9251 26.5289V26.5745C33.0517 26.5745 33.1835 26.5973 33.3203 26.6429C33.4621 26.6885 33.5913 26.7619 33.7079 26.8633C33.8244 26.9595 33.9207 27.0862 33.9967 27.2433C34.0777 27.4003 34.1183 27.5929 34.1183 27.8209C34.1183 28.0286 34.0828 28.2262 34.0119 28.4137C33.946 28.5961 33.8523 28.7557 33.7307 28.8925C33.6091 29.0293 33.4647 29.1382 33.2975 29.2193C33.1303 29.2953 32.9479 29.3333 32.7503 29.3333H29.9383V24.0285ZM31.0935 28.3605H32.4235C32.5755 28.3605 32.6945 28.3199 32.7807 28.2389C32.8719 28.1527 32.9175 28.0337 32.9175 27.8817V27.6233C32.9175 27.4713 32.8719 27.3547 32.7807 27.2737C32.6945 27.1875 32.5755 27.1445 32.4235 27.1445H31.0935V28.3605ZM31.0935 26.2021H32.2411C32.3931 26.2021 32.5121 26.159 32.5983 26.0729C32.6844 25.9867 32.7275 25.8677 32.7275 25.7157V25.4877C32.7275 25.3357 32.6844 25.2166 32.5983 25.1305C32.5121 25.0443 32.3931 25.0013 32.2411 25.0013H31.0935V26.2021ZM36.6111 29.4245C36.3071 29.4245 36.036 29.3763 35.7979 29.2801C35.5597 29.1787 35.3571 29.0394 35.1899 28.8621C35.0277 28.6797 34.9036 28.4593 34.8175 28.2009C34.7364 27.9425 34.6959 27.6537 34.6959 27.3345C34.6959 27.0203 34.7364 26.7366 34.8175 26.4833C34.8985 26.2249 35.0176 26.0045 35.1747 25.8221C35.3368 25.6397 35.5344 25.5003 35.7675 25.4041C36.0005 25.3027 36.2665 25.2521 36.5655 25.2521C36.8948 25.2521 37.176 25.3078 37.4091 25.4193C37.6472 25.5307 37.8397 25.6802 37.9867 25.8677C38.1387 26.0551 38.2476 26.273 38.3135 26.5213C38.3844 26.7645 38.4199 27.0203 38.4199 27.2889V27.6233H35.8587V27.6841C35.8587 27.9475 35.9296 28.1578 36.0715 28.3149C36.2133 28.4669 36.4363 28.5429 36.7403 28.5429C36.9733 28.5429 37.1633 28.4973 37.3103 28.4061C37.4572 28.3098 37.594 28.1958 37.7207 28.0641L38.2831 28.7633C38.1057 28.971 37.8727 29.1331 37.5839 29.2497C37.3001 29.3662 36.9759 29.4245 36.6111 29.4245ZM36.5883 26.0805C36.3603 26.0805 36.1804 26.1565 36.0487 26.3085C35.922 26.4554 35.8587 26.653 35.8587 26.9013V26.9621H37.2571V26.8937C37.2571 26.6505 37.2013 26.4554 37.0899 26.3085C36.9835 26.1565 36.8163 26.0805 36.5883 26.0805ZM40.5669 29.4245C40.1819 29.4245 39.8576 29.3637 39.5941 29.2421C39.3307 29.1154 39.0951 28.9381 38.8873 28.7101L39.5485 28.0413C39.6904 28.1983 39.8475 28.3225 40.0197 28.4137C40.192 28.5049 40.3871 28.5505 40.6049 28.5505C40.8279 28.5505 40.9824 28.5175 41.0685 28.4517C41.1547 28.3807 41.1977 28.287 41.1977 28.1705C41.1977 27.983 41.0635 27.8715 40.7949 27.8361L40.3617 27.7829C39.4649 27.6714 39.0165 27.261 39.0165 26.5517C39.0165 26.3591 39.052 26.1843 39.1229 26.0273C39.1989 25.8651 39.3028 25.7283 39.4345 25.6169C39.5713 25.5003 39.7335 25.4117 39.9209 25.3509C40.1135 25.285 40.3288 25.2521 40.5669 25.2521C40.7747 25.2521 40.9571 25.2673 41.1141 25.2977C41.2763 25.323 41.4181 25.3635 41.5397 25.4193C41.6664 25.4699 41.7804 25.5358 41.8817 25.6169C41.9881 25.6929 42.092 25.779 42.1933 25.8753L41.5473 26.5365C41.4207 26.4098 41.2763 26.311 41.1141 26.2401C40.9571 26.1641 40.7949 26.1261 40.6277 26.1261C40.4352 26.1261 40.2984 26.1565 40.2173 26.2173C40.1363 26.2781 40.0957 26.3591 40.0957 26.4605C40.0957 26.5669 40.1236 26.6505 40.1793 26.7113C40.2401 26.767 40.3516 26.8075 40.5137 26.8329L40.9621 26.8937C41.8387 27.0102 42.2769 27.4105 42.2769 28.0945C42.2769 28.287 42.2364 28.4643 42.1553 28.6265C42.0743 28.7886 41.9577 28.9305 41.8057 29.0521C41.6588 29.1686 41.4789 29.2598 41.2661 29.3257C41.0584 29.3915 40.8253 29.4245 40.5669 29.4245ZM44.3829 29.3333C43.9928 29.3333 43.6964 29.2345 43.4937 29.0369C43.2961 28.8393 43.1973 28.5505 43.1973 28.1705V26.2173H42.6349V25.3433H42.9161C43.0681 25.3433 43.172 25.3078 43.2277 25.2369C43.2835 25.1609 43.3113 25.0545 43.3113 24.9177V24.2641H44.3221V25.3433H45.1125V26.2173H44.3221V28.4593H45.0517V29.3333H44.3829ZM55.0243 29.3333V24.0285H58.5431V25.0545H56.1795V26.1413H58.1935V27.1597H56.1795V29.3333H55.0243ZM60.783 29.4245C60.4891 29.4245 60.2256 29.3763 59.9925 29.2801C59.7645 29.1838 59.5695 29.0445 59.4074 28.8621C59.2503 28.6797 59.1287 28.4593 59.0425 28.2009C58.9564 27.9425 58.9134 27.6537 58.9134 27.3345C58.9134 27.0153 58.9564 26.7265 59.0425 26.4681C59.1287 26.2097 59.2503 25.9918 59.4074 25.8145C59.5695 25.6321 59.7645 25.4927 59.9925 25.3965C60.2256 25.3002 60.4891 25.2521 60.783 25.2521C61.0768 25.2521 61.3378 25.3002 61.5658 25.3965C61.7988 25.4927 61.9939 25.6321 62.151 25.8145C62.3131 25.9918 62.4372 26.2097 62.5234 26.4681C62.6095 26.7265 62.6525 27.0153 62.6525 27.3345C62.6525 27.6537 62.6095 27.9425 62.5234 28.2009C62.4372 28.4593 62.3131 28.6797 62.151 28.8621C61.9939 29.0445 61.7988 29.1838 61.5658 29.2801C61.3378 29.3763 61.0768 29.4245 60.783 29.4245ZM60.783 28.5353C61.0059 28.5353 61.1782 28.4669 61.2998 28.3301C61.4214 28.1933 61.4822 27.9982 61.4822 27.7449V26.9317C61.4822 26.6783 61.4214 26.4833 61.2998 26.3465C61.1782 26.2097 61.0059 26.1413 60.783 26.1413C60.56 26.1413 60.3878 26.2097 60.2662 26.3465C60.1446 26.4833 60.0838 26.6783 60.0838 26.9317V27.7449C60.0838 27.9982 60.1446 28.1933 60.2662 28.3301C60.3878 28.4669 60.56 28.5353 60.783 28.5353ZM63.454 29.3333V25.3433H64.5788V26.2097H64.6168C64.6371 26.0982 64.6726 25.9918 64.7232 25.8905C64.7739 25.7841 64.8398 25.6903 64.9208 25.6093C65.007 25.5282 65.1083 25.4649 65.2248 25.4193C65.3413 25.3686 65.4781 25.3433 65.6352 25.3433H65.8328V26.3921H65.5516C65.2223 26.3921 64.9766 26.4351 64.8144 26.5213C64.6574 26.6074 64.5788 26.767 64.5788 27.0001V29.3333H63.454ZM70.1164 29.6221C70.1164 29.8349 70.0784 30.0223 70.0024 30.1845C69.9315 30.3466 69.8124 30.4834 69.6452 30.5949C69.478 30.7114 69.2551 30.7975 68.9764 30.8533C68.7028 30.9141 68.3633 30.9445 67.958 30.9445C67.6135 30.9445 67.3196 30.9217 67.0764 30.8761C66.8383 30.8355 66.6432 30.7747 66.4912 30.6937C66.3443 30.6177 66.2354 30.5214 66.1644 30.4049C66.0985 30.2934 66.0656 30.1642 66.0656 30.0173C66.0656 29.7943 66.1315 29.6195 66.2632 29.4929C66.395 29.3662 66.5774 29.2877 66.8104 29.2573V29.1737C66.6179 29.1382 66.4735 29.0571 66.3772 28.9305C66.281 28.7987 66.2328 28.6467 66.2328 28.4745C66.2328 28.3681 66.2531 28.2769 66.2936 28.2009C66.3392 28.1198 66.395 28.0514 66.4608 27.9957C66.5318 27.9349 66.6128 27.8867 66.704 27.8513C66.7952 27.8158 66.8864 27.7879 66.9776 27.7677V27.7373C66.7344 27.6258 66.5546 27.4738 66.438 27.2813C66.3215 27.0837 66.2632 26.8557 66.2632 26.5973C66.2632 26.1919 66.4025 25.8677 66.6812 25.6245C66.965 25.3762 67.3956 25.2521 67.9732 25.2521C68.2367 25.2521 68.4622 25.2774 68.6496 25.3281V25.1761C68.6496 24.9633 68.7003 24.8113 68.8016 24.7201C68.908 24.6238 69.0575 24.5757 69.25 24.5757H69.8808V25.4117H68.9992V25.4573C69.2323 25.5687 69.4046 25.7233 69.516 25.9209C69.6275 26.1134 69.6832 26.3389 69.6832 26.5973C69.6832 26.9975 69.5414 27.3193 69.2576 27.5625C68.979 27.8006 68.5508 27.9197 67.9732 27.9197C67.7148 27.9197 67.4792 27.8918 67.2664 27.8361C67.1499 27.9121 67.0916 28.0185 67.0916 28.1553C67.0916 28.2515 67.1271 28.3275 67.198 28.3833C67.274 28.4339 67.3981 28.4593 67.5704 28.4593H68.7256C69.212 28.4593 69.5641 28.5606 69.782 28.7633C70.005 28.9659 70.1164 29.2522 70.1164 29.6221ZM69.06 29.7741C69.06 29.6575 69.0144 29.5689 68.9232 29.5081C68.832 29.4473 68.6724 29.4169 68.4444 29.4169H67.0764C67.0257 29.4675 66.9878 29.5233 66.9624 29.5841C66.9422 29.6499 66.932 29.7133 66.932 29.7741C66.932 29.921 66.9954 30.0274 67.122 30.0933C67.2487 30.1642 67.464 30.1997 67.768 30.1997H68.224C68.528 30.1997 68.7434 30.1642 68.87 30.0933C68.9967 30.0274 69.06 29.921 69.06 29.7741ZM67.9732 27.1825C68.1962 27.1825 68.3608 27.1369 68.4672 27.0457C68.5787 26.9494 68.6344 26.8126 68.6344 26.6353V26.5441C68.6344 26.3667 68.5787 26.2325 68.4672 26.1413C68.3608 26.045 68.1962 25.9969 67.9732 25.9969C67.7503 25.9969 67.5831 26.045 67.4716 26.1413C67.3652 26.2325 67.312 26.3667 67.312 26.5441V26.6353C67.312 26.8126 67.3652 26.9494 67.4716 27.0457C67.5831 27.1369 67.7503 27.1825 67.9732 27.1825ZM72.236 29.4245C71.932 29.4245 71.661 29.3763 71.4228 29.2801C71.1847 29.1787 70.982 29.0394 70.8148 28.8621C70.6527 28.6797 70.5285 28.4593 70.4424 28.2009C70.3614 27.9425 70.3208 27.6537 70.3208 27.3345C70.3208 27.0203 70.3614 26.7366 70.4424 26.4833C70.5235 26.2249 70.6426 26.0045 70.7996 25.8221C70.9618 25.6397 71.1594 25.5003 71.3924 25.4041C71.6255 25.3027 71.8915 25.2521 72.1904 25.2521C72.5198 25.2521 72.801 25.3078 73.034 25.4193C73.2722 25.5307 73.4647 25.6802 73.6116 25.8677C73.7636 26.0551 73.8726 26.273 73.9384 26.5213C74.0094 26.7645 74.0448 27.0203 74.0448 27.2889V27.6233H71.4836V27.6841C71.4836 27.9475 71.5546 28.1578 71.6964 28.3149C71.8383 28.4669 72.0612 28.5429 72.3652 28.5429C72.5983 28.5429 72.7883 28.4973 72.9352 28.4061C73.0822 28.3098 73.219 28.1958 73.3456 28.0641L73.908 28.7633C73.7307 28.971 73.4976 29.1331 73.2088 29.2497C72.9251 29.3662 72.6008 29.4245 72.236 29.4245ZM72.2132 26.0805C71.9852 26.0805 71.8054 26.1565 71.6736 26.3085C71.547 26.4554 71.4836 26.653 71.4836 26.9013V26.9621H72.882V26.8937C72.882 26.6505 72.8263 26.4554 72.7148 26.3085C72.6084 26.1565 72.4412 26.0805 72.2132 26.0805ZM76.2376 29.3333C75.8475 29.3333 75.5511 29.2345 75.3484 29.0369C75.1508 28.8393 75.052 28.5505 75.052 28.1705V26.2173H74.4896V25.3433H74.7708C74.9228 25.3433 75.0267 25.3078 75.0824 25.2369C75.1382 25.1609 75.166 25.0545 75.166 24.9177V24.2641H76.1768V25.3433H76.9672V26.2173H76.1768V28.4593H76.9064V29.3333H76.2376ZM81.8171 25.0545V29.3333H80.6619V25.0545H79.2255V24.0285H83.2535V25.0545H81.8171ZM83.983 23.7093H85.1078V26.0197H85.1534C85.2243 25.8119 85.3484 25.6321 85.5258 25.4801C85.7031 25.3281 85.9488 25.2521 86.263 25.2521C86.6734 25.2521 86.9824 25.3889 87.1902 25.6625C87.403 25.9361 87.5094 26.3262 87.5094 26.8329V29.3333H86.3846V26.9241C86.3846 26.6657 86.344 26.4757 86.263 26.3541C86.1819 26.2274 86.0375 26.1641 85.8298 26.1641C85.7386 26.1641 85.6499 26.1767 85.5638 26.2021C85.4776 26.2223 85.3991 26.2578 85.3282 26.3085C85.2623 26.3591 85.2091 26.4225 85.1686 26.4985C85.128 26.5694 85.1078 26.653 85.1078 26.7493V29.3333H83.983V23.7093ZM90.1747 29.4245C89.8707 29.4245 89.5996 29.3763 89.3615 29.2801C89.1234 29.1787 88.9207 29.0394 88.7535 28.8621C88.5914 28.6797 88.4672 28.4593 88.3811 28.2009C88.3 27.9425 88.2595 27.6537 88.2595 27.3345C88.2595 27.0203 88.3 26.7366 88.3811 26.4833C88.4622 26.2249 88.5812 26.0045 88.7383 25.8221C88.9004 25.6397 89.098 25.5003 89.3311 25.4041C89.5642 25.3027 89.8302 25.2521 90.1291 25.2521C90.4584 25.2521 90.7396 25.3078 90.9727 25.4193C91.2108 25.5307 91.4034 25.6802 91.5503 25.8677C91.7023 26.0551 91.8112 26.273 91.8771 26.5213C91.948 26.7645 91.9835 27.0203 91.9835 27.2889V27.6233H89.4223V27.6841C89.4223 27.9475 89.4932 28.1578 89.6351 28.3149C89.777 28.4669 89.9999 28.5429 90.3039 28.5429C90.537 28.5429 90.727 28.4973 90.8739 28.4061C91.0208 28.3098 91.1576 28.1958 91.2843 28.0641L91.8467 28.7633C91.6694 28.971 91.4363 29.1331 91.1475 29.2497C90.8638 29.3662 90.5395 29.4245 90.1747 29.4245ZM90.1519 26.0805C89.9239 26.0805 89.744 26.1565 89.6123 26.3085C89.4856 26.4554 89.4223 26.653 89.4223 26.9013V26.9621H90.8207V26.8937C90.8207 26.6505 90.765 26.4554 90.6535 26.3085C90.5471 26.1565 90.3799 26.0805 90.1519 26.0805ZM95.79 29.3333H94.6348V24.0285H97.1504C97.3936 24.0285 97.614 24.069 97.8116 24.1501C98.0092 24.2311 98.1764 24.3477 98.3132 24.4997C98.4551 24.6466 98.564 24.8239 98.64 25.0317C98.716 25.2394 98.754 25.4699 98.754 25.7233C98.754 26.083 98.673 26.3971 98.5108 26.6657C98.3538 26.9342 98.1131 27.1293 97.7888 27.2509L98.83 29.3333H97.5456L96.6184 27.3877H95.79V29.3333ZM97.006 26.4149C97.1783 26.4149 97.3126 26.3718 97.4088 26.2857C97.5102 26.1945 97.5608 26.0627 97.5608 25.8905V25.5561C97.5608 25.3838 97.5102 25.2546 97.4088 25.1685C97.3126 25.0773 97.1783 25.0317 97.006 25.0317H95.79V26.4149H97.006ZM101.248 29.4245C100.944 29.4245 100.673 29.3763 100.435 29.2801C100.197 29.1787 99.9942 29.0394 99.827 28.8621C99.6648 28.6797 99.5407 28.4593 99.4546 28.2009C99.3735 27.9425 99.333 27.6537 99.333 27.3345C99.333 27.0203 99.3735 26.7366 99.4546 26.4833C99.5356 26.2249 99.6547 26.0045 99.8118 25.8221C99.9739 25.6397 100.171 25.5003 100.405 25.4041C100.638 25.3027 100.904 25.2521 101.203 25.2521C101.532 25.2521 101.813 25.3078 102.046 25.4193C102.284 25.5307 102.477 25.6802 102.624 25.8677C102.776 26.0551 102.885 26.273 102.951 26.5213C103.021 26.7645 103.057 27.0203 103.057 27.2889V27.6233H100.496V27.6841C100.496 27.9475 100.567 28.1578 100.709 28.3149C100.85 28.4669 101.073 28.5429 101.377 28.5429C101.61 28.5429 101.8 28.4973 101.947 28.4061C102.094 28.3098 102.231 28.1958 102.358 28.0641L102.92 28.7633C102.743 28.971 102.51 29.1331 102.221 29.2497C101.937 29.3662 101.613 29.4245 101.248 29.4245ZM101.225 26.0805C100.997 26.0805 100.817 26.1565 100.686 26.3085C100.559 26.4554 100.496 26.653 100.496 26.9013V26.9621H101.894V26.8937C101.894 26.6505 101.838 26.4554 101.727 26.3085C101.621 26.1565 101.453 26.0805 101.225 26.0805ZM105.204 29.4245C104.819 29.4245 104.495 29.3637 104.231 29.2421C103.968 29.1154 103.732 28.9381 103.525 28.7101L104.186 28.0413C104.328 28.1983 104.485 28.3225 104.657 28.4137C104.829 28.5049 105.024 28.5505 105.242 28.5505C105.465 28.5505 105.62 28.5175 105.706 28.4517C105.792 28.3807 105.835 28.287 105.835 28.1705C105.835 27.983 105.701 27.8715 105.432 27.8361L104.999 27.7829C104.102 27.6714 103.654 27.261 103.654 26.5517C103.654 26.3591 103.689 26.1843 103.76 26.0273C103.836 25.8651 103.94 25.7283 104.072 25.6169C104.209 25.5003 104.371 25.4117 104.558 25.3509C104.751 25.285 104.966 25.2521 105.204 25.2521C105.412 25.2521 105.594 25.2673 105.751 25.2977C105.913 25.323 106.055 25.3635 106.177 25.4193C106.304 25.4699 106.418 25.5358 106.519 25.6169C106.625 25.6929 106.729 25.779 106.831 25.8753L106.185 26.5365C106.058 26.4098 105.913 26.311 105.751 26.2401C105.594 26.1641 105.432 26.1261 105.265 26.1261C105.072 26.1261 104.936 26.1565 104.855 26.2173C104.773 26.2781 104.733 26.3591 104.733 26.4605C104.733 26.5669 104.761 26.6505 104.817 26.7113C104.877 26.767 104.989 26.8075 105.151 26.8329L105.599 26.8937C106.476 27.0102 106.914 27.4105 106.914 28.0945C106.914 28.287 106.874 28.4643 106.793 28.6265C106.711 28.7886 106.595 28.9305 106.443 29.0521C106.296 29.1686 106.116 29.2598 105.903 29.3257C105.696 29.3915 105.463 29.4245 105.204 29.4245ZM109.02 29.3333C108.63 29.3333 108.333 29.2345 108.131 29.0369C107.933 28.8393 107.834 28.5505 107.834 28.1705V26.2173H107.272V25.3433H107.553C107.705 25.3433 107.809 25.3078 107.865 25.2369C107.921 25.1609 107.948 25.0545 107.948 24.9177V24.2641H108.959V25.3433H109.75V26.2173H108.959V28.4593H109.689V29.3333H109.02Z" fill="#265896"/>
<path d="M50.8668 28.9001C50.6996 29.0369 50.4969 29.1585 50.2588 29.2649C50.0207 29.3713 49.7167 29.4245 49.3468 29.4245C49.0529 29.4245 48.7945 29.389 48.5716 29.3181C48.3487 29.2421 48.1612 29.1382 48.0092 29.0065C47.8572 28.8697 47.7407 28.7126 47.6596 28.5353C47.5836 28.3529 47.5456 28.1553 47.5456 27.9425C47.5456 27.7601 47.5709 27.5979 47.6216 27.4561C47.6773 27.3142 47.7508 27.185 47.842 27.0685C47.9383 26.9519 48.0523 26.8455 48.184 26.7493C48.3157 26.653 48.4576 26.5593 48.6096 26.4681C48.5336 26.387 48.4601 26.2983 48.3892 26.2021C48.3183 26.1058 48.2549 26.0045 48.1992 25.8981C48.1435 25.7917 48.0979 25.6802 48.0624 25.5637C48.032 25.4471 48.0168 25.3281 48.0168 25.2065C48.0168 25.0342 48.0523 24.8721 48.1232 24.7201C48.1992 24.563 48.3056 24.4262 48.4424 24.3097C48.5843 24.1931 48.7515 24.1019 48.944 24.0361C49.1416 23.9702 49.362 23.9373 49.6052 23.9373C49.8231 23.9373 50.0232 23.9651 50.2056 24.0209C50.3931 24.0715 50.5552 24.1501 50.692 24.2565C50.8288 24.3578 50.9352 24.4845 51.0112 24.6365C51.0923 24.7885 51.1328 24.9607 51.1328 25.1533C51.1328 25.3205 51.1049 25.4725 51.0492 25.6093C50.9935 25.7461 50.9175 25.8727 50.8212 25.9893C50.7249 26.1007 50.6109 26.2046 50.4792 26.3009C50.3525 26.3971 50.2183 26.4883 50.0764 26.5745L50.8972 27.4637C50.9631 27.3015 51.0137 27.1293 51.0492 26.9469C51.0847 26.7645 51.1075 26.5846 51.1176 26.4073H52.3868V27.3421H51.908C51.8219 27.6663 51.7079 27.9475 51.566 28.1857L52.6224 29.3333H51.262L50.8668 28.9001ZM49.5748 24.7961C49.438 24.7961 49.3215 24.8341 49.2252 24.9101C49.134 24.9861 49.0884 25.0925 49.0884 25.2293V25.2597C49.0884 25.361 49.1213 25.4623 49.1872 25.5637C49.2531 25.6599 49.3645 25.7967 49.5216 25.9741C49.6989 25.8677 49.8332 25.7613 49.9244 25.6549C50.0156 25.5434 50.0612 25.4117 50.0612 25.2597V25.2293C50.0612 25.0925 50.0131 24.9861 49.9168 24.9101C49.8256 24.8341 49.7116 24.7961 49.5748 24.7961ZM49.514 28.4897C49.8129 28.4897 50.0688 28.4187 50.2816 28.2769L49.1644 27.0685C48.9921 27.1698 48.8705 27.2737 48.7996 27.3801C48.7287 27.4865 48.6932 27.6081 48.6932 27.7449V27.8209C48.6932 28.0134 48.7616 28.173 48.8984 28.2997C49.0352 28.4263 49.2404 28.4897 49.514 28.4897Z" fill="#E2A739"/>
</g>
<defs>
<clipPath id="clip0_26_42">
<rect width="112" height="32" fill="white"/>
</clipPath>
</defs>
</svg>
